<svg width="20" height="20" viewBox="0 0 20 20" fill="none" xmlns="http://www.w3.org/2000/svg">
<path d="M10 12.5V14.1667M5.00001 17.5H15C15.442 17.5 15.866 17.3244 16.1785 17.0118C16.4911 16.6993 16.6667 16.2754 16.6667 15.8333V10.8333C16.6667 10.3913 16.4911 9.96738 16.1785 9.65482C15.866 9.34226 15.442 9.16667 15 9.16667H5.00001C4.55798 9.16667 4.13406 9.34226 3.8215 9.65482C3.50894 9.96738 3.33334 10.3913 3.33334 10.8333V15.8333C3.33334 16.2754 3.50894 16.6993 3.8215 17.0118C4.13406 17.3244 4.55798 17.5 5.00001 17.5ZM13.3333 9.16667V5.83333C13.3333 4.94928 12.9822 4.10143 12.357 3.47631C11.7319 2.85119 10.8841 2.5 10 2.5C9.11596 2.5 8.26811 2.85119 7.64299 3.47631C7.01787 4.10143 6.66668 4.94928 6.66668 5.83333V9.16667H13.3333Z" stroke="#737373" stroke-width="2" stroke-linecap="round" stroke-linejoin="round"/>
</svg>
