<svg width="377" height="359" viewBox="0 0 377 359" fill="none" xmlns="http://www.w3.org/2000/svg">
<path d="M377 276.856H0V277.037H377V276.856Z" fill="#EBEBEB"/>
<path d="M339.225 288.51H314.251V288.691H339.225V288.51Z" fill="#EBEBEB"/>
<path d="M249.74 290.475H243.186V290.656H249.74V290.475Z" fill="#EBEBEB"/>
<path d="M313.496 281.786H299.025V281.967H313.496V281.786Z" fill="#EBEBEB"/>
<path d="M72.1212 283.003H39.5537V283.184H72.1212V283.003Z" fill="#EBEBEB"/>
<path d="M83.61 283.003H78.835V283.184H83.61V283.003Z" fill="#EBEBEB"/>
<path d="M169.761 286.061H99.1289V286.242H169.761V286.061Z" fill="#EBEBEB"/>
<path d="M178.708 244.567H33.1114C30.7386 244.567 28.8076 242.713 28.8076 240.435V43.9177C28.8076 41.6393 30.7386 39.7852 33.1114 39.7852H178.708C181.08 39.7852 183.011 41.6393 183.011 43.9177V240.435C183.011 242.713 181.08 244.567 178.708 244.567ZM33.1114 39.9669C30.8419 39.9669 28.9961 41.7392 28.9961 43.9185V240.435C28.9961 242.614 30.8419 244.387 33.1114 244.387H178.708C180.977 244.387 182.823 242.614 182.823 240.435V43.9177C182.823 41.7392 180.977 39.9662 178.708 39.9662L33.1114 39.9669Z" fill="#EBEBEB"/>
<path d="M341.795 244.567H196.2C193.827 244.567 191.896 242.713 191.896 240.435V43.9177C191.896 41.6393 193.827 39.7852 196.2 39.7852H341.795C344.169 39.7852 346.099 41.6393 346.099 43.9177V240.435C346.1 242.713 344.169 244.567 341.795 244.567ZM196.2 39.9669C193.931 39.9669 192.085 41.7392 192.085 43.9185V240.435C192.085 242.614 193.931 244.387 196.2 244.387H341.795C344.065 244.387 345.911 242.614 345.911 240.435V43.9177C345.911 41.7392 344.065 39.9662 341.795 39.9662L196.2 39.9669Z" fill="#EBEBEB"/>
<path d="M218.427 126.018L322.313 126.018V60.6932L218.427 60.6932V126.018Z" fill="#E6E6E6"/>
<path d="M215.257 126.018L320.832 126.018V60.6932L215.257 60.6932V126.018Z" fill="#F0F0F0"/>
<path d="M218.427 138.838H322.313V126.017L218.427 126.017V138.838Z" fill="#E6E6E6"/>
<path d="M209.977 138.838H315.552V126.017L209.977 126.017V138.838Z" fill="#F0F0F0"/>
<path d="M316.395 121.757V64.9551L219.695 64.9551V121.757L316.395 121.757Z" fill="#FAFAFA"/>
<path d="M294.589 121.757L282.239 64.9551H262.966L275.316 121.757H294.589Z" fill="white"/>
<path d="M314.34 117.516C314.515 117.516 314.657 117.38 314.657 117.212V67.7279C314.657 67.5599 314.516 67.4238 314.34 67.4238C314.165 67.4238 314.022 67.5599 314.022 67.7279V117.212C314.022 117.38 314.165 117.516 314.34 117.516Z" fill="#F0F0F0"/>
<path d="M271.175 121.757L258.825 64.9551H251.311L263.662 121.757H271.175Z" fill="white"/>
<path d="M220.258 121.757V64.9551H219.695V121.757H220.258Z" fill="#E6E6E6"/>
<path opacity="0.6" d="M214.207 71.3796H318.094L318.502 66.6113H214.615L214.207 71.3796Z" fill="#EBEBEB"/>
<path opacity="0.6" d="M214.207 79.1999H318.094L318.502 74.4316H214.615L214.207 79.1999Z" fill="#EBEBEB"/>
<path opacity="0.6" d="M214.207 87.0212H318.094L318.502 82.2529H214.615L214.207 87.0212Z" fill="#EBEBEB"/>
<path opacity="0.6" d="M214.207 94.8415H318.094L318.502 90.0732H214.615L214.207 94.8415Z" fill="#EBEBEB"/>
<path opacity="0.6" d="M214.207 102.662H318.094L318.502 97.8936H214.615L214.207 102.662Z" fill="#EBEBEB"/>
<path opacity="0.6" d="M214.207 110.483H318.094L318.502 105.715H214.615L214.207 110.483Z" fill="#EBEBEB"/>
<path d="M307.397 229.35H285.614V233.474H307.397V229.35Z" fill="#E6E6E6"/>
<path d="M244.528 276.856H248.549V181.965H244.528V276.856Z" fill="#E6E6E6"/>
<path d="M230.599 233.474H285.613V229.35H230.599V233.474Z" fill="#F5F5F5"/>
<path d="M307.397 251.915H285.614V256.039H307.397V251.915Z" fill="#E6E6E6"/>
<path d="M230.599 256.038H285.613V251.914H230.599V256.038Z" fill="#F5F5F5"/>
<path d="M307.397 184.221H285.614V188.345H307.397V184.221Z" fill="#E6E6E6"/>
<path d="M230.599 188.344H285.613V184.22H230.599V188.344Z" fill="#F5F5F5"/>
<path d="M307.397 206.785H285.614V210.909H307.397V206.785Z" fill="#E6E6E6"/>
<path d="M230.599 210.908H285.613V206.784H230.599V210.908Z" fill="#F5F5F5"/>
<path d="M299.542 276.856H303.563V181.965H299.542V276.856Z" fill="#E6E6E6"/>
<path d="M281.593 276.856H285.614V181.965H281.593V276.856Z" fill="#F5F5F5"/>
<path d="M230.6 276.856H234.621V181.965H230.6V276.856Z" fill="#F5F5F5"/>
<path d="M49.2906 276.856H90.4424L90.4424 200.191H49.2906L49.2906 276.856Z" fill="#E6E6E6"/>
<path d="M60.2798 276.857H49.291V266.273H71.8009L60.2798 276.857Z" fill="#FAFAFA"/>
<path d="M161.494 276.856H202.646V200.191H161.494V276.856Z" fill="#E6E6E6"/>
<path d="M49.2911 273.214H171.084V200.19H49.2911L49.2911 273.214Z" fill="#FAFAFA"/>
<path d="M160.096 276.857H171.085V266.273H148.574L160.096 276.857Z" fill="#FAFAFA"/>
<path d="M57.8162 245.676H162.56V227.401H57.8162V245.676Z" fill="#F0F0F0"/>
<path d="M57.8162 267.855H162.56V249.581H57.8162V267.855Z" fill="#F0F0F0"/>
<path d="M77.7247 229.356H142.65C144.556 229.356 146.1 227.873 146.1 226.042V225.819H74.2744V226.042C74.2744 227.873 75.8194 229.356 77.7247 229.356Z" fill="#FAFAFA"/>
<path d="M57.8152 223.496H162.559V205.222H57.8152V223.496Z" fill="#F0F0F0"/>
<path d="M77.7247 207.175H142.65C144.556 207.175 146.1 205.692 146.1 203.862V203.639H74.2744V203.862C74.2744 205.692 75.8194 207.175 77.7247 207.175Z" fill="#FAFAFA"/>
<path d="M77.7247 251.535H142.65C144.556 251.535 146.1 250.052 146.1 248.222V247.999H74.2744V248.222C74.2744 250.052 75.8194 251.535 77.7247 251.535Z" fill="#FAFAFA"/>
<path d="M55.8475 126.018L159.734 126.018V60.6932L55.8475 60.6932L55.8475 126.018Z" fill="#E6E6E6"/>
<path d="M52.6778 126.018L158.253 126.018V60.6932L52.6778 60.6932L52.6778 126.018Z" fill="#F0F0F0"/>
<path d="M55.8475 138.838H159.734V126.017L55.8475 126.017V138.838Z" fill="#E6E6E6"/>
<path d="M47.3966 138.838H152.972V126.017L47.3966 126.017V138.838Z" fill="#F0F0F0"/>
<path d="M153.815 121.757V64.9551L57.1157 64.9551L57.1157 121.757L153.815 121.757Z" fill="#FAFAFA"/>
<path d="M132.01 121.757L119.659 64.9551H100.386L112.737 121.757H132.01Z" fill="white"/>
<path d="M151.761 117.516C151.936 117.516 152.077 117.38 152.077 117.212V67.7279C152.077 67.5599 151.936 67.4238 151.761 67.4238C151.586 67.4238 151.443 67.5599 151.443 67.7279V117.212C151.444 117.38 151.586 117.516 151.761 117.516Z" fill="#F0F0F0"/>
<path d="M108.597 121.757L96.246 64.9551H88.7324L101.084 121.757H108.597Z" fill="white"/>
<path d="M57.6787 121.757L57.6787 64.9551H57.1155L57.1155 121.757H57.6787Z" fill="#E6E6E6"/>
<path opacity="0.6" d="M51.6279 71.3796H155.515L155.923 66.6113H52.0366L51.6279 71.3796Z" fill="#EBEBEB"/>
<path opacity="0.6" d="M51.6279 74.0698H155.515L155.923 69.3008H52.0366L51.6279 74.0698Z" fill="#EBEBEB"/>
<path opacity="0.6" d="M51.6279 76.7595H155.515L155.923 71.9912H52.0366L51.6279 76.7595Z" fill="#EBEBEB"/>
<path opacity="0.6" d="M51.6279 79.4497H155.515L155.923 74.6807H52.0366L51.6279 79.4497Z" fill="#EBEBEB"/>
<path opacity="0.6" d="M51.6279 82.1394H155.515L155.923 77.3711H52.0366L51.6279 82.1394Z" fill="#EBEBEB"/>
<path opacity="0.6" d="M51.627 84.8288H155.514L155.923 80.0605H52.0356L51.627 84.8288Z" fill="#EBEBEB"/>
<path d="M72.395 197.848H75.9863V159.409H72.395V197.848Z" fill="#F5F5F5"/>
<path d="M72.857 197.821H73.8711V159.383H72.857V197.821Z" fill="#FAFAFA"/>
<path d="M74.296 197.821H74.6934V159.383H74.296V197.821Z" fill="#FAFAFA"/>
<path d="M60.8955 200.19H87.4846C87.4846 198.414 85.9849 196.974 84.1345 196.974H64.2455C62.3952 196.974 60.8955 198.414 60.8955 200.19Z" fill="#F0F0F0"/>
<path d="M67.7361 183.271C68.3046 183.271 68.7691 182.824 68.7691 182.279V157.077C68.7691 156.532 68.3039 156.085 67.7361 156.085C67.1676 156.085 66.7031 156.532 66.7031 157.077V182.279C66.7031 182.825 67.1676 183.271 67.7361 183.271Z" fill="#F0F0F0"/>
<path d="M58.1143 168.546H90.2663L86.568 146.972H61.8126L58.1143 168.546Z" fill="#E0E0E0"/>
<path d="M188.5 309.554C269.24 309.554 334.692 305.884 334.692 301.356C334.692 296.829 269.24 293.158 188.5 293.158C107.76 293.158 42.3076 296.829 42.3076 301.356C42.3076 305.884 107.76 309.554 188.5 309.554Z" fill="#F5F5F5"/>
<path d="M78.4972 146.509L77.7451 146.561L78.7461 159.912L79.4981 159.86L78.4972 146.509Z" fill="#74BF44"/>
<path d="M80.0284 166.749L79.2764 166.801L79.6534 171.823L80.4055 171.771L80.0284 166.749Z" fill="#74BF44"/>
<path d="M254.634 228.177H93.159C89.5066 228.177 86.3036 225.307 86.0405 221.8L78.1062 116.002C77.843 112.495 80.6162 109.626 84.2686 109.626H245.744C249.396 109.626 252.599 112.495 252.862 116.002L260.797 221.8C261.059 225.307 258.287 228.177 254.634 228.177Z" fill="#74BF44"/>
<path d="M255.253 228.177H93.7781C90.1258 228.177 86.9228 225.307 86.6596 221.8L78.7253 116.002C78.4621 112.495 81.2354 109.626 84.8877 109.626H246.363C250.015 109.626 253.218 112.495 253.481 116.002L261.416 221.8C261.678 225.307 258.906 228.177 255.253 228.177Z" fill="#74BF44"/>
<path opacity="0.5" d="M255.253 228.177H93.7781C90.1258 228.177 86.9228 225.307 86.6596 221.8L78.7253 116.002C78.4621 112.495 81.2354 109.626 84.8877 109.626H246.363C250.015 109.626 253.218 112.495 253.481 116.002L261.416 221.8C261.678 225.307 258.906 228.177 255.253 228.177Z" fill="white"/>
<path d="M246.602 112.814H85.1271C84.9446 112.814 84.7644 112.822 84.5864 112.835C80.459 113.162 81.302 119.191 85.4679 119.191H247.218C251.384 119.191 251.323 113.162 247.147 112.835C246.966 112.822 246.785 112.814 246.602 112.814Z" fill="#74BF44"/>
<path d="M89.3328 116.003C89.3931 116.81 88.7613 117.465 87.9198 117.465C87.0791 117.465 86.3485 116.81 86.2882 116.003C86.2278 115.196 86.8597 114.541 87.7012 114.541C88.5426 114.541 89.2725 115.195 89.3328 116.003Z" fill="#FAFAFA"/>
<path d="M94.5106 116.003C94.5709 116.81 93.939 117.465 93.0976 117.465C92.2568 117.465 91.5262 116.81 91.4659 116.003C91.4056 115.196 92.0374 114.541 92.8789 114.541C93.7196 114.541 94.4502 115.195 94.5106 116.003Z" fill="#FAFAFA"/>
<path d="M99.689 116.003C99.7494 116.81 99.1167 117.465 98.276 117.465C97.4353 117.465 96.7047 116.81 96.6436 116.003C96.5833 115.196 97.2159 114.541 98.0566 114.541C98.8973 114.541 99.628 115.195 99.689 116.003Z" fill="#FAFAFA"/>
<path d="M250.972 217.618H96.4747C95.1454 217.618 93.9895 216.583 93.8938 215.306L87.3686 128.301C87.2729 127.025 88.2734 125.989 89.6027 125.989H244.1C245.429 125.989 246.585 127.024 246.681 128.301L253.206 215.306C253.301 216.583 252.301 217.618 250.972 217.618Z" fill="white"/>
<path d="M185.883 184.474L183.369 150.939L175.747 146.534H154.783L157.629 184.474H185.883Z" fill="white"/>
<path d="M185.883 184.825H157.629C157.437 184.825 157.278 184.683 157.265 184.499L154.419 146.559C154.411 146.462 154.447 146.366 154.516 146.295C154.586 146.223 154.682 146.184 154.784 146.184H175.748C175.814 146.184 175.88 146.201 175.937 146.234L183.557 150.638C183.659 150.697 183.725 150.8 183.733 150.913L186.248 184.448C186.255 184.545 186.22 184.642 186.15 184.713C186.082 184.784 185.984 184.825 185.883 184.825ZM157.969 184.123H185.491L183.017 151.146L175.646 146.885H155.176L157.969 184.123Z" fill="#74BF44"/>
<path d="M183.369 150.939L175.747 146.534L178.545 152.37L183.369 150.939Z" fill="#EBEBEB"/>
<path d="M178.545 152.72C178.406 152.72 178.275 152.643 178.214 152.516L175.415 146.681C175.348 146.541 175.384 146.376 175.504 146.273C175.623 146.17 175.798 146.155 175.936 146.234L183.556 150.639C183.68 150.709 183.748 150.844 183.731 150.982C183.713 151.119 183.614 151.234 183.476 151.274L178.653 152.705C178.618 152.715 178.581 152.72 178.545 152.72ZM176.576 147.423L178.744 151.943L182.48 150.835L176.576 147.423Z" fill="#74BF44"/>
<path d="M166.61 163.627C166.673 164.474 166.01 165.16 165.128 165.16C164.246 165.16 163.481 164.474 163.417 163.627C163.354 162.781 164.017 162.095 164.898 162.095C165.78 162.095 166.546 162.781 166.61 163.627Z" fill="#74BF44"/>
<path d="M176.967 163.627C177.03 164.474 176.367 165.16 175.485 165.16C174.604 165.16 173.838 164.474 173.774 163.627C173.71 162.781 174.373 162.095 175.255 162.095C176.138 162.095 176.904 162.781 176.967 163.627Z" fill="#74BF44"/>
<path d="M179.889 173.568C179.699 173.568 179.539 173.426 179.525 173.242C179.34 170.777 175.315 168.773 170.552 168.773C167.397 168.773 164.564 169.673 163.158 171.123C162.533 171.769 162.245 172.464 162.299 173.191C162.313 173.384 162.162 173.552 161.96 173.566C161.758 173.579 161.584 173.434 161.57 173.241C161.501 172.325 161.865 171.427 162.623 170.645C164.162 169.056 167.2 168.07 170.552 168.07C175.777 168.07 180.038 170.32 180.254 173.19C180.268 173.384 180.117 173.552 179.915 173.565C179.906 173.568 179.897 173.568 179.889 173.568Z" fill="#74BF44"/>
<path d="M160.728 160.523C160.639 160.523 160.55 160.492 160.479 160.43C160.331 160.298 160.322 160.076 160.46 159.934L162.061 158.277C162.198 158.135 162.43 158.127 162.578 158.258C162.725 158.39 162.734 158.613 162.597 158.754L160.996 160.411C160.924 160.486 160.826 160.523 160.728 160.523Z" fill="#74BF44"/>
<path d="M179.138 160.523C179.049 160.523 178.959 160.492 178.889 160.429L177.039 158.773C176.891 158.641 176.884 158.418 177.021 158.277C177.158 158.135 177.39 158.127 177.537 158.259L179.387 159.916C179.535 160.047 179.542 160.27 179.405 160.412C179.333 160.485 179.236 160.523 179.138 160.523Z" fill="#74BF44"/>
<path d="M126.088 189.273V198H124.298L120.825 192.963H120.77V198H118.661V189.273H120.476L123.911 194.301H123.983V189.273H126.088ZM130.47 198.124C129.782 198.124 129.191 197.983 128.697 197.702C128.206 197.418 127.826 197.023 127.559 196.517C127.295 196.009 127.163 195.419 127.163 194.749C127.163 194.075 127.295 193.486 127.559 192.98C127.826 192.472 128.206 192.077 128.697 191.795C129.191 191.511 129.782 191.369 130.47 191.369C131.157 191.369 131.747 191.511 132.238 191.795C132.733 192.077 133.112 192.472 133.376 192.98C133.643 193.486 133.777 194.075 133.777 194.749C133.777 195.419 133.643 196.009 133.376 196.517C133.112 197.023 132.733 197.418 132.238 197.702C131.747 197.983 131.157 198.124 130.47 198.124ZM130.483 196.551C130.733 196.551 130.944 196.474 131.118 196.321C131.291 196.168 131.423 195.955 131.514 195.682C131.608 195.409 131.654 195.094 131.654 194.736C131.654 194.372 131.608 194.054 131.514 193.781C131.423 193.509 131.291 193.295 131.118 193.142C130.944 192.989 130.733 192.912 130.483 192.912C130.224 192.912 130.005 192.989 129.826 193.142C129.65 193.295 129.515 193.509 129.422 193.781C129.331 194.054 129.285 194.372 129.285 194.736C129.285 195.094 129.331 195.409 129.422 195.682C129.515 195.955 129.65 196.168 129.826 196.321C130.005 196.474 130.224 196.551 130.483 196.551ZM137.422 198V191.455H139.446V192.648H139.515C139.634 192.216 139.828 191.895 140.098 191.685C140.368 191.472 140.682 191.365 141.04 191.365C141.137 191.365 141.236 191.372 141.338 191.386C141.441 191.398 141.536 191.416 141.624 191.442V193.253C141.525 193.219 141.394 193.192 141.232 193.172C141.073 193.152 140.931 193.142 140.806 193.142C140.559 193.142 140.336 193.197 140.137 193.308C139.941 193.416 139.786 193.568 139.672 193.764C139.561 193.957 139.506 194.185 139.506 194.446V198H137.422ZM145.193 198.124C144.508 198.124 143.917 197.989 143.42 197.719C142.926 197.446 142.545 197.058 142.278 196.555C142.014 196.05 141.882 195.449 141.882 194.753C141.882 194.077 142.015 193.486 142.282 192.98C142.549 192.472 142.926 192.077 143.412 191.795C143.897 191.511 144.47 191.369 145.129 191.369C145.595 191.369 146.021 191.442 146.407 191.587C146.794 191.732 147.127 191.946 147.409 192.23C147.69 192.514 147.909 192.865 148.065 193.283C148.221 193.697 148.299 194.173 148.299 194.71V195.23H142.61V194.02H146.36C146.358 193.798 146.305 193.601 146.203 193.428C146.1 193.254 145.96 193.119 145.781 193.023C145.605 192.923 145.402 192.874 145.172 192.874C144.939 192.874 144.73 192.926 144.545 193.031C144.36 193.134 144.214 193.274 144.106 193.453C143.998 193.629 143.941 193.83 143.936 194.054V195.286C143.936 195.553 143.988 195.787 144.093 195.989C144.199 196.187 144.348 196.342 144.541 196.453C144.734 196.564 144.964 196.619 145.231 196.619C145.416 196.619 145.583 196.594 145.734 196.543C145.885 196.491 146.014 196.416 146.122 196.317C146.23 196.217 146.311 196.095 146.365 195.95L148.278 196.006C148.199 196.435 148.024 196.808 147.754 197.126C147.487 197.442 147.136 197.687 146.701 197.864C146.267 198.037 145.764 198.124 145.193 198.124ZM152.419 198.124C151.729 198.124 151.136 197.982 150.642 197.697C150.151 197.413 149.773 197.018 149.509 196.513C149.244 196.004 149.112 195.416 149.112 194.749C149.112 194.078 149.244 193.49 149.509 192.984C149.776 192.476 150.155 192.08 150.646 191.795C151.141 191.511 151.73 191.369 152.415 191.369C153.02 191.369 153.547 191.479 153.996 191.697C154.447 191.916 154.8 192.226 155.053 192.626C155.308 193.024 155.443 193.491 155.457 194.028H153.51C153.47 193.693 153.357 193.43 153.169 193.24C152.984 193.05 152.743 192.955 152.445 192.955C152.203 192.955 151.991 193.023 151.81 193.159C151.628 193.293 151.486 193.491 151.384 193.756C151.284 194.017 151.234 194.341 151.234 194.727C151.234 195.114 151.284 195.44 151.384 195.707C151.486 195.972 151.628 196.172 151.81 196.308C151.991 196.442 152.203 196.509 152.445 196.509C152.638 196.509 152.808 196.467 152.956 196.385C153.107 196.303 153.23 196.182 153.327 196.023C153.423 195.861 153.484 195.665 153.51 195.435H155.457C155.438 195.974 155.303 196.446 155.053 196.849C154.805 197.253 154.457 197.567 154.009 197.791C153.563 198.013 153.033 198.124 152.419 198.124ZM159.583 198.124C158.899 198.124 158.308 197.989 157.811 197.719C157.316 197.446 156.936 197.058 156.669 196.555C156.404 196.05 156.272 195.449 156.272 194.753C156.272 194.077 156.406 193.486 156.673 192.98C156.94 192.472 157.316 192.077 157.802 191.795C158.288 191.511 158.86 191.369 159.52 191.369C159.985 191.369 160.412 191.442 160.798 191.587C161.184 191.732 161.518 191.946 161.799 192.23C162.081 192.514 162.299 192.865 162.456 193.283C162.612 193.697 162.69 194.173 162.69 194.71V195.23H157.001V194.02H160.751C160.748 193.798 160.696 193.601 160.593 193.428C160.491 193.254 160.35 193.119 160.172 193.023C159.995 192.923 159.792 192.874 159.562 192.874C159.329 192.874 159.12 192.926 158.936 193.031C158.751 193.134 158.605 193.274 158.497 193.453C158.389 193.629 158.332 193.83 158.326 194.054V195.286C158.326 195.553 158.379 195.787 158.484 195.989C158.589 196.187 158.738 196.342 158.931 196.453C159.125 196.564 159.355 196.619 159.622 196.619C159.806 196.619 159.974 196.594 160.125 196.543C160.275 196.491 160.404 196.416 160.512 196.317C160.62 196.217 160.701 196.095 160.755 195.95L162.669 196.006C162.589 196.435 162.414 196.808 162.145 197.126C161.877 197.442 161.527 197.687 161.092 197.864C160.657 198.037 160.154 198.124 159.583 198.124ZM165.838 194.267V198H163.754V191.455H165.736V192.656H165.808C165.953 192.256 166.2 191.942 166.55 191.714C166.899 191.484 167.315 191.369 167.798 191.369C168.259 191.369 168.658 191.473 168.996 191.68C169.337 191.885 169.601 192.172 169.788 192.541C169.979 192.908 170.072 193.337 170.07 193.828V198H167.986V194.237C167.989 193.874 167.896 193.589 167.709 193.385C167.524 193.18 167.267 193.078 166.938 193.078C166.719 193.078 166.526 193.126 166.358 193.223C166.193 193.317 166.065 193.452 165.974 193.628C165.886 193.804 165.841 194.017 165.838 194.267ZM175.054 191.455V192.989H170.925V191.455H175.054ZM171.79 189.886H173.874V195.942C173.874 196.07 173.894 196.173 173.934 196.253C173.976 196.33 174.037 196.385 174.117 196.419C174.196 196.45 174.292 196.466 174.402 196.466C174.482 196.466 174.566 196.459 174.654 196.445C174.745 196.428 174.813 196.413 174.858 196.402L175.174 197.906C175.074 197.935 174.934 197.97 174.752 198.013C174.573 198.055 174.358 198.082 174.108 198.094C173.62 198.116 173.201 198.06 172.851 197.923C172.505 197.784 172.239 197.568 172.054 197.276C171.873 196.983 171.784 196.615 171.79 196.172V189.886ZM180.583 198H178.316L181.261 189.273H184.069L187.014 198H184.747L182.697 191.472H182.629L180.583 198ZM180.281 194.565H185.02V196.168H180.281V194.565ZM190.599 198.124C189.908 198.124 189.316 197.982 188.822 197.697C188.33 197.413 187.952 197.018 187.688 196.513C187.424 196.004 187.292 195.416 187.292 194.749C187.292 194.078 187.424 193.49 187.688 192.984C187.955 192.476 188.335 192.08 188.826 191.795C189.32 191.511 189.91 191.369 190.594 191.369C191.2 191.369 191.727 191.479 192.175 191.697C192.627 191.916 192.979 192.226 193.232 192.626C193.488 193.024 193.623 193.491 193.637 194.028H191.69C191.65 193.693 191.536 193.43 191.349 193.24C191.164 193.05 190.923 192.955 190.624 192.955C190.383 192.955 190.171 193.023 189.989 193.159C189.808 193.293 189.665 193.491 189.563 193.756C189.464 194.017 189.414 194.341 189.414 194.727C189.414 195.114 189.464 195.44 189.563 195.707C189.665 195.972 189.808 196.172 189.989 196.308C190.171 196.442 190.383 196.509 190.624 196.509C190.817 196.509 190.988 196.467 191.136 196.385C191.286 196.303 191.41 196.182 191.506 196.023C191.603 195.861 191.664 195.665 191.69 195.435H193.637C193.617 195.974 193.482 196.446 193.232 196.849C192.985 197.253 192.637 197.567 192.188 197.791C191.742 198.013 191.212 198.124 190.599 198.124ZM198.398 191.455V192.989H194.269V191.455H198.398ZM195.134 189.886H197.218V195.942C197.218 196.07 197.238 196.173 197.277 196.253C197.32 196.33 197.381 196.385 197.461 196.419C197.54 196.45 197.635 196.466 197.746 196.466C197.826 196.466 197.909 196.459 197.998 196.445C198.088 196.428 198.157 196.413 198.202 196.402L198.517 197.906C198.418 197.935 198.277 197.97 198.096 198.013C197.917 198.055 197.702 198.082 197.452 198.094C196.963 198.116 196.544 198.06 196.195 197.923C195.848 197.784 195.583 197.568 195.398 197.276C195.216 196.983 195.128 196.615 195.134 196.172V189.886ZM199.461 198V191.455H201.545V198H199.461ZM200.505 190.692C200.213 190.692 199.961 190.595 199.751 190.402C199.541 190.206 199.436 189.97 199.436 189.695C199.436 189.422 199.541 189.189 199.751 188.996C199.961 188.8 200.213 188.702 200.505 188.702C200.801 188.702 201.052 188.8 201.26 188.996C201.47 189.189 201.575 189.422 201.575 189.695C201.575 189.97 201.47 190.206 201.26 190.402C201.052 190.595 200.801 190.692 200.505 190.692ZM209.221 191.455L206.975 198H204.589L202.347 191.455H204.542L205.748 195.963H205.816L207.026 191.455H209.221ZM210.02 198V191.455H212.104V198H210.02ZM211.064 190.692C210.771 190.692 210.52 190.595 210.31 190.402C210.099 190.206 209.994 189.97 209.994 189.695C209.994 189.422 210.099 189.189 210.31 188.996C210.52 188.8 210.771 188.702 211.064 188.702C211.359 188.702 211.611 188.8 211.818 188.996C212.028 189.189 212.134 189.422 212.134 189.695C212.134 189.97 212.028 190.206 211.818 190.402C211.611 190.595 211.359 190.692 211.064 190.692ZM217.125 191.455V192.989H212.995V191.455H217.125ZM213.86 189.886H215.944V195.942C215.944 196.07 215.964 196.173 216.004 196.253C216.047 196.33 216.108 196.385 216.187 196.419C216.267 196.45 216.362 196.466 216.473 196.466C216.552 196.466 216.636 196.459 216.724 196.445C216.815 196.428 216.883 196.413 216.929 196.402L217.244 197.906C217.145 197.935 217.004 197.97 216.822 198.013C216.643 198.055 216.429 198.082 216.179 198.094C215.69 198.116 215.271 198.06 214.922 197.923C214.575 197.784 214.309 197.568 214.125 197.276C213.943 196.983 213.855 196.615 213.86 196.172V189.886ZM218.188 198V191.455H220.272V198H218.188ZM219.232 190.692C218.939 190.692 218.688 190.595 218.478 190.402C218.267 190.206 218.162 189.97 218.162 189.695C218.162 189.422 218.267 189.189 218.478 188.996C218.688 188.8 218.939 188.702 219.232 188.702C219.527 188.702 219.779 188.8 219.986 188.996C220.196 189.189 220.301 189.422 220.301 189.695C220.301 189.97 220.196 190.206 219.986 190.402C219.779 190.595 219.527 190.692 219.232 190.692ZM224.658 198.124C223.973 198.124 223.382 197.989 222.885 197.719C222.391 197.446 222.01 197.058 221.743 196.555C221.479 196.05 221.347 195.449 221.347 194.753C221.347 194.077 221.48 193.486 221.747 192.98C222.014 192.472 222.391 192.077 222.876 191.795C223.362 191.511 223.935 191.369 224.594 191.369C225.06 191.369 225.486 191.442 225.872 191.587C226.259 191.732 226.592 191.946 226.874 192.23C227.155 192.514 227.374 192.865 227.53 193.283C227.686 193.697 227.764 194.173 227.764 194.71V195.23H222.075V194.02H225.825C225.822 193.798 225.77 193.601 225.668 193.428C225.565 193.254 225.425 193.119 225.246 193.023C225.07 192.923 224.866 192.874 224.636 192.874C224.403 192.874 224.195 192.926 224.01 193.031C223.825 193.134 223.679 193.274 223.571 193.453C223.463 193.629 223.406 193.83 223.401 194.054V195.286C223.401 195.553 223.453 195.787 223.558 195.989C223.663 196.187 223.812 196.342 224.006 196.453C224.199 196.564 224.429 196.619 224.696 196.619C224.881 196.619 225.048 196.594 225.199 196.543C225.349 196.491 225.479 196.416 225.587 196.317C225.695 196.217 225.776 196.095 225.83 195.95L227.743 196.006C227.663 196.435 227.489 196.808 227.219 197.126C226.952 197.442 226.601 197.687 226.166 197.864C225.732 198.037 225.229 198.124 224.658 198.124ZM234.543 193.453L232.63 193.504C232.61 193.368 232.556 193.247 232.468 193.142C232.38 193.034 232.265 192.95 232.123 192.891C231.983 192.828 231.821 192.797 231.637 192.797C231.395 192.797 231.189 192.845 231.019 192.942C230.851 193.038 230.769 193.169 230.772 193.334C230.769 193.462 230.82 193.572 230.925 193.666C231.033 193.76 231.225 193.835 231.5 193.892L232.762 194.131C233.415 194.256 233.901 194.463 234.219 194.753C234.54 195.043 234.702 195.426 234.705 195.903C234.702 196.352 234.569 196.743 234.304 197.075C234.043 197.408 233.685 197.666 233.23 197.851C232.776 198.033 232.256 198.124 231.671 198.124C230.736 198.124 229.999 197.932 229.459 197.548C228.922 197.162 228.615 196.645 228.539 195.997L230.597 195.946C230.642 196.185 230.76 196.366 230.951 196.491C231.141 196.616 231.384 196.679 231.679 196.679C231.946 196.679 232.164 196.629 232.331 196.53C232.499 196.43 232.584 196.298 232.587 196.134C232.584 195.986 232.519 195.868 232.391 195.78C232.263 195.689 232.063 195.618 231.79 195.567L230.648 195.349C229.992 195.23 229.503 195.01 229.182 194.689C228.861 194.365 228.702 193.953 228.705 193.453C228.702 193.016 228.819 192.642 229.054 192.332C229.29 192.02 229.625 191.781 230.06 191.616C230.495 191.452 231.007 191.369 231.598 191.369C232.485 191.369 233.184 191.555 233.695 191.928C234.206 192.297 234.489 192.805 234.543 193.453Z" fill="#74BF44"/>
<path d="M266.681 125.31C267.355 124.986 268.158 124.566 268.9 124.175C269.657 123.776 270.409 123.36 271.15 122.927C272.627 122.053 274.116 121.19 275.529 120.232C278.38 118.346 281.052 116.253 283.456 113.967C283.771 113.691 284.039 113.384 284.33 113.091L284.759 112.648L284.975 112.426L285.083 112.316C285.111 112.287 285.105 112.292 285.091 112.31L285.067 112.345C284.96 112.539 285.049 112.48 285.09 112.293C285.141 112.114 285.183 111.82 285.197 111.503C285.245 110.189 284.975 108.531 284.647 106.929C283.976 103.682 282.96 100.342 281.955 97.0696L284.884 95.8359C286.72 98.9824 288.249 102.196 289.494 105.681C290.086 107.446 290.631 109.218 290.79 111.395C290.819 111.95 290.832 112.533 290.727 113.213C290.616 113.882 290.441 114.682 289.805 115.59L289.679 115.758L289.582 115.879L289.466 116.015L289.234 116.286L288.768 116.829C288.454 117.187 288.155 117.564 287.821 117.899C285.222 120.671 282.329 123.12 279.242 125.249C277.705 126.327 276.135 127.351 274.504 128.283C273.692 128.755 272.869 129.208 272.033 129.647C271.187 130.099 270.381 130.492 269.419 130.926L266.681 125.31Z" fill="#FFB573"/>
<path d="M259.974 295.52C260.558 295.52 261.196 295.405 261.641 295.303C261.699 295.29 261.744 295.245 261.754 295.188C261.765 295.132 261.739 295.074 261.689 295.043C261.473 294.906 259.556 293.718 258.821 294.038C258.704 294.088 258.559 294.199 258.523 294.442C258.475 294.763 258.559 295.019 258.771 295.205C259.04 295.441 259.489 295.52 259.974 295.52ZM261.218 295.098C260.119 295.309 259.292 295.273 258.972 294.993C258.836 294.874 258.786 294.707 258.819 294.481C258.836 294.361 258.895 294.321 258.943 294.3C259.33 294.132 260.436 294.644 261.218 295.098Z" fill="#74BF44"/>
<path d="M261.607 295.307C261.633 295.307 261.659 295.301 261.683 295.288C261.729 295.262 261.757 295.215 261.757 295.163C261.757 295.089 261.749 293.343 261.062 292.76C260.88 292.605 260.667 292.54 260.429 292.568C260.054 292.611 259.953 292.838 259.925 292.968C259.783 293.652 260.931 294.96 261.533 295.288C261.556 295.301 261.582 295.307 261.607 295.307ZM260.533 292.849C260.656 292.849 260.764 292.89 260.864 292.975C261.274 293.323 261.414 294.303 261.449 294.884C260.848 294.424 260.133 293.441 260.219 293.025C260.234 292.956 260.274 292.875 260.465 292.853C260.488 292.85 260.51 292.849 260.533 292.849Z" fill="#74BF44"/>
<path d="M261.052 107.2C260.318 110.798 258.769 118.087 261.391 120.488C261.391 120.488 260.367 124.139 253.403 124.139C245.747 124.139 249.744 120.489 249.744 120.489C253.924 119.531 253.816 116.554 253.088 113.757L261.052 107.2Z" fill="#FFB573"/>
<path d="M248.28 121.939C247.078 122.095 248.1 119.106 248.589 118.796C249.717 118.08 264.311 117.066 264.216 118.767C264.155 119.499 263.797 120.927 263.159 121.412C262.521 121.897 258.772 120.431 248.28 121.939Z" fill="#263238"/>
<path d="M250.657 120.933C249.703 121.242 249.793 118.23 250.118 117.867C250.871 117.029 262.683 114.115 263.033 115.763C263.168 116.475 263.233 117.897 262.828 118.449C262.423 119.001 258.953 118.088 250.657 120.933Z" fill="#263238"/>
<path d="M246.264 100.714C246.171 100.719 246.078 100.684 246.015 100.609C245.17 99.6174 244.072 99.7188 244.062 99.7202C243.895 99.7369 243.75 99.6232 243.732 99.4654C243.714 99.3075 243.833 99.1656 243.998 99.149C244.056 99.1432 245.43 99.015 246.478 100.245C246.583 100.368 246.564 100.549 246.436 100.649C246.386 100.69 246.325 100.711 246.264 100.714Z" fill="#263238"/>
<path d="M244.803 104.257C244.803 104.257 244.157 106.434 243.313 107.534C244.044 108.071 245.154 107.689 245.154 107.689L244.803 104.257Z" fill="#FF5652"/>
<path d="M245.17 103.377C245.22 103.864 244.991 104.284 244.66 104.316C244.329 104.347 244.02 103.977 243.97 103.491C243.92 103.004 244.148 102.584 244.479 102.553C244.811 102.521 245.12 102.891 245.17 103.377Z" fill="#263238"/>
<path d="M244.629 102.565L243.377 102.343C243.377 102.343 244.096 103.198 244.629 102.565Z" fill="#263238"/>
<path d="M268.951 295.164H262.636L263.131 281.12H269.447L268.951 295.164Z" fill="#FFB573"/>
<path d="M262.136 294.462H269.232C269.489 294.462 269.699 294.634 269.735 294.876L270.544 300.266C270.627 300.825 270.127 301.354 269.531 301.345C267.057 301.304 265.865 301.165 262.745 301.165C260.825 301.165 258.02 301.356 255.37 301.356C252.777 301.356 252.578 298.838 253.682 298.611C258.631 297.589 259.413 296.179 261.081 294.835C261.381 294.592 261.759 294.462 262.136 294.462Z" fill="#263238"/>
<g opacity="0.2">
<path d="M269.448 281.124H263.13L262.878 288.363H269.196L269.448 281.124Z" fill="black"/>
</g>
<path d="M243.824 128.904C239.916 127.435 236.188 125.837 232.476 124.014C228.77 122.193 225.121 120.254 221.615 117.662C220.742 117.003 219.879 116.282 219.035 115.44C218.825 115.223 218.614 115.021 218.408 114.772C218.191 114.51 218.027 114.356 217.745 113.953C217.235 113.25 216.841 112.305 216.736 111.34C216.637 110.375 216.818 109.454 217.106 108.719C217.394 107.971 217.772 107.361 218.167 106.831C218.96 105.771 219.838 104.988 220.723 104.283C222.489 102.879 224.358 101.858 226.229 100.904C227.164 100.428 228.117 99.9983 229.082 99.603C230.052 99.2012 230.998 98.8276 232.027 98.4873L233.366 101.277C230.077 103.267 226.67 105.455 224.165 107.908C223.557 108.515 223.025 109.151 222.69 109.711C222.331 110.281 222.335 110.707 222.397 110.674C222.427 110.674 222.415 110.661 222.503 110.745L222.803 111.054C222.916 111.184 223.075 111.317 223.218 111.45C223.81 111.98 224.504 112.513 225.253 113.02C226.749 114.043 228.398 115 230.104 115.894C231.803 116.801 233.552 117.668 235.333 118.491C238.886 120.125 242.57 121.698 246.184 123.134L243.824 128.904Z" fill="#FFB573"/>
<path d="M235.225 99.2996L236.269 97.1246L231.522 95.542C231.522 95.542 230.043 99.8158 231.805 101.788C233.306 101.557 234.588 100.624 235.225 99.2996Z" fill="#FFB573"/>
<path d="M236.269 92.4226L232.474 91.3721L231.521 95.5409L236.269 97.1242V92.4226Z" fill="#FFB573"/>
<path d="M285.275 97.3354L285.829 92.2529L280.937 93.357C280.937 93.357 280.865 98.1209 283.453 98.8804L285.275 97.3354Z" fill="#FFB573"/>
<path d="M283.472 88.6953L280.285 90.1245L280.937 93.3571L285.829 92.253L283.472 88.6953Z" fill="#FFB573"/>
<path d="M262.044 100.097C262.274 106.111 262.506 108.652 259.675 112.018C255.418 117.08 247.674 116.036 245.577 110.209C243.69 104.963 243.63 96.009 249.481 93.0536C255.246 90.1431 261.814 94.0817 262.044 100.097Z" fill="#FFB573"/>
<path d="M259.316 112.007C265.465 109.455 269.51 104.075 267.803 95.663C266.169 87.615 260.511 86.8201 258.173 88.4896C255.836 90.1592 250.01 87.6708 246.513 90.4958C240.455 95.3908 246.182 100.668 249.166 103.795C250.948 107.312 253.283 114.51 259.316 112.007Z" fill="#263238"/>
<path d="M256.763 94.2185C258.838 97.1036 262.817 97.9181 265.652 96.0379C268.487 94.1584 269.103 90.2958 267.028 87.4107C264.953 84.5256 260.974 83.7111 258.139 85.5913C255.304 87.4708 254.688 91.3333 256.763 94.2185Z" fill="#74BF44"/>
<path d="M258.359 89.0532C257.472 84.2039 262.251 80.4644 268.641 82.2715C275.031 84.0786 271.651 89.518 270.34 93.862C269.03 98.206 272.469 102.344 273.906 99.035C275.343 95.727 272.927 94.7055 272.927 94.7055C272.927 94.7055 279.712 96.3946 273.409 103.739C267.106 111.084 261.399 102.974 262.943 98.1872C264.19 94.3196 259.198 93.6369 258.359 89.0532Z" fill="#263238"/>
<path d="M251.972 90.8858C249.055 89.4248 244.115 88.2432 241.303 92.7849C239.974 94.9323 240.489 97.8449 240.489 97.8449L249.076 98.3937L251.972 90.8858Z" fill="#263238"/>
<path d="M239.479 96.4203C239.475 96.4203 239.471 96.4203 239.467 96.4196C239.363 96.4138 239.284 96.3276 239.29 96.2277C239.298 96.1046 239.506 93.192 241.337 91.3646C245.762 86.9496 250.95 90.6116 252.435 91.8395C252.514 91.9047 252.523 92.0191 252.454 92.0951C252.386 92.1711 252.267 92.1791 252.188 92.1139C250.767 90.9389 245.804 87.4296 241.608 91.6158C239.875 93.3454 239.668 96.2212 239.666 96.2501C239.661 96.3457 239.578 96.4203 239.479 96.4203Z" fill="#263238"/>
<path d="M250.217 103.556C250.208 104.727 249.662 105.874 248.969 106.652C247.927 107.822 246.733 107.246 246.459 105.949C246.213 104.781 246.457 102.765 247.774 102.059C249.071 101.363 250.228 102.216 250.217 103.556Z" fill="#FFB573"/>
<path d="M248.859 158.645C248.859 158.645 249.262 200.741 253.065 224.199C256.137 243.146 261.821 286.962 261.821 286.962H270.434C270.434 286.962 271.275 244.663 269.716 225.923C265.77 178.502 275.952 169.637 267.736 158.645H248.859Z" fill="#263238"/>
<path opacity="0.1" d="M248.859 158.645C248.859 158.645 249.262 200.741 253.065 224.199C256.137 243.146 261.821 286.962 261.821 286.962H270.434C270.434 286.962 271.275 244.663 269.716 225.923C265.77 178.502 275.952 169.637 267.736 158.645H248.859Z" fill="white"/>
<path opacity="0.3" d="M253.387 177.742C256.41 190.448 253.997 210.459 252.346 219.27C250.597 205.891 249.715 188.551 249.277 175.845C250.838 173.412 252.316 173.253 253.387 177.742Z" fill="black"/>
<path d="M260.644 287.125H271.614L272.19 283.43L260.581 283.053L260.644 287.125Z" fill="#74BF44"/>
<path d="M263.773 123.11C264.805 121.14 270.352 119.901 273.384 119.905L275.653 129.582C275.653 129.582 269.612 138.19 267.101 137.277C264.133 136.2 261.563 127.331 263.773 123.11Z" fill="#74BF44"/>
<path opacity="0.4" d="M263.773 123.11C264.805 121.14 270.352 119.901 273.384 119.905L275.653 129.582C275.653 129.582 269.612 138.19 267.101 137.277C264.133 136.2 261.563 127.331 263.773 123.11Z" fill="black"/>
<path d="M257.379 284.758C257.407 284.715 257.409 284.661 257.384 284.616C257.355 284.563 257.293 284.532 257.229 284.542C256.913 284.587 254.121 285.013 253.744 285.778C253.671 285.927 253.682 286.083 253.774 286.231C253.928 286.478 254.146 286.617 254.421 286.643C255.335 286.734 256.656 285.516 257.362 284.781C257.368 284.773 257.374 284.766 257.379 284.758ZM254.031 285.871C254.289 285.465 255.732 285.091 256.834 284.896C255.839 285.867 254.963 286.407 254.45 286.357C254.271 286.339 254.133 286.249 254.029 286.082C253.989 286.017 253.984 285.961 254.014 285.901C254.02 285.891 254.025 285.88 254.031 285.871Z" fill="#74BF44"/>
<path d="M257.38 284.758C257.386 284.75 257.391 284.74 257.394 284.729C257.411 284.682 257.4 284.628 257.366 284.59C257.318 284.537 256.2 283.299 255.169 283.235C254.853 283.215 254.577 283.305 254.347 283.503C254.037 283.769 254.064 284.001 254.142 284.148C254.468 284.769 256.474 284.986 257.283 284.824C257.323 284.816 257.358 284.792 257.38 284.758ZM254.428 283.847C254.451 283.81 254.489 283.766 254.547 283.716C254.717 283.57 254.914 283.507 255.15 283.522C255.827 283.564 256.597 284.237 256.946 284.58C256.053 284.652 254.604 284.391 254.408 284.018C254.397 283.996 254.368 283.941 254.428 283.847Z" fill="#74BF44"/>
<path d="M263.962 282.19L258.186 284.653L255.611 279.509L252.248 272.773L251.854 271.99L257.623 269.522L258.07 270.404L261.331 276.928L263.962 282.19Z" fill="#FFB573"/>
<path opacity="0.2" d="M261.331 276.928L255.612 279.509L252.248 272.773L258.07 270.404L261.331 276.928Z" fill="black"/>
<path d="M242.086 158.645C242.086 158.645 223.632 202.689 228.634 223.43C233.155 242.174 253.142 277.672 253.142 277.672L260.871 273.947C260.871 273.947 248.514 231.095 247.174 221.786C244.566 203.673 261.331 178.105 261.331 158.645H242.086Z" fill="#263238"/>
<path opacity="0.1" d="M242.086 158.645C242.086 158.645 223.632 202.689 228.634 223.43C233.155 242.174 253.142 277.672 253.142 277.672L260.871 273.947C260.871 273.947 248.514 231.095 247.174 221.786C244.566 203.673 261.331 178.105 261.331 158.645H242.086Z" fill="white"/>
<path d="M257.155 283.882L262.891 279.872C263.1 279.726 263.375 279.747 263.552 279.922L267.509 283.824C267.92 284.229 267.839 284.94 267.352 285.268C265.327 286.633 264.277 287.194 261.755 288.957C260.202 290.042 257.11 292.44 254.967 293.938C252.871 295.403 251.166 293.481 251.92 292.673C255.295 289.05 256.006 286.809 256.53 284.78C256.625 284.414 256.849 284.096 257.155 283.882Z" fill="#263238"/>
<path d="M252.645 279.242L262.621 274.86L261.341 270.957L250.658 275.636L252.645 279.242Z" fill="#74BF44"/>
<path d="M246.983 122.616C246.155 120.559 238.947 118.303 235.332 117.516L233.743 128.932C233.743 128.932 239.648 137.08 242.241 136.406C245.302 135.611 248.756 127.023 246.983 122.616Z" fill="#74BF44"/>
<path opacity="0.4" d="M246.983 122.616C246.155 120.559 238.947 118.303 235.332 117.516L233.743 128.932C233.743 128.932 239.648 137.08 242.241 136.406C245.302 135.611 248.756 127.023 246.983 122.616Z" fill="black"/>
<path d="M239.067 122.042C239.067 122.042 236.059 123.059 242.086 158.644C252.264 158.644 262.784 158.644 267.736 158.644C267.305 148.62 267.293 142.439 272.283 121.866C272.283 121.866 266.908 120.743 261.39 120.489C257.074 120.289 253.537 120.156 249.742 120.489C244.741 120.927 239.067 122.042 239.067 122.042Z" fill="#74BF44"/>
<path opacity="0.4" d="M239.067 122.042C239.067 122.042 236.059 123.059 242.086 158.644C252.264 158.644 262.784 158.644 267.736 158.644C267.305 148.62 267.293 142.439 272.283 121.866C272.283 121.866 266.908 120.743 261.39 120.489C257.074 120.289 253.537 120.156 249.742 120.489C244.741 120.927 239.067 122.042 239.067 122.042Z" fill="black"/>
<path d="M268.12 157.198L269.277 159.403C269.367 159.573 269.156 159.748 268.859 159.748H241.959C241.727 159.748 241.536 159.639 241.521 159.5L241.29 157.295C241.274 157.142 241.475 157.013 241.727 157.013H267.703C267.893 157.013 268.062 157.088 268.12 157.198Z" fill="#74BF44"/>
<path opacity="0.3" d="M268.12 157.198L269.277 159.403C269.367 159.573 269.156 159.748 268.859 159.748H241.959C241.727 159.748 241.536 159.639 241.521 159.5L241.29 157.295C241.274 157.142 241.475 157.013 241.727 157.013H267.703C267.893 157.013 268.062 157.088 268.12 157.198Z" fill="white"/>
<path d="M264.631 159.988H265.327C265.466 159.988 265.572 159.919 265.562 159.836L265.235 156.971C265.226 156.887 265.105 156.819 264.966 156.819H264.27C264.132 156.819 264.026 156.888 264.036 156.971L264.362 159.836C264.372 159.92 264.493 159.988 264.631 159.988Z" fill="#263238"/>
<path d="M247.77 159.988H248.466C248.605 159.988 248.71 159.919 248.701 159.836L248.374 156.971C248.364 156.887 248.244 156.819 248.105 156.819H247.409C247.27 156.819 247.165 156.888 247.174 156.971L247.501 159.836C247.51 159.92 247.631 159.988 247.77 159.988Z" fill="#263238"/>
</svg>
