<svg width="738" height="362" viewBox="0 0 738 362" fill="none" xmlns="http://www.w3.org/2000/svg">
<path d="M456.515 161.429C454.289 153.959 448.519 148.254 437.856 149.703L386.898 156.505C380.776 157.131 378.449 151.08 384.183 149.452L426.561 136.862C442.922 132.438 448.776 122.334 449.027 110.644C449.194 102.697 443.012 95.9665 435.255 95.6387C425.898 95.2452 413.236 100.765 385.012 104.772C380.489 105.415 379.445 103.871 380.454 100.926C383.163 92.9679 405.634 89.0394 416.202 88.0915C428.906 86.9529 429.664 78.5652 431.048 74.6306C435.237 62.7495 431.137 17.9912 428.637 4.28591C428.076 1.20982 425.135 -0.42362 420.791 0.0950231C405.897 1.88345 359.754 29.0854 342.235 39.3211C337.61 42.0217 334.585 48.6269 339.693 62.8628C343.178 72.568 341.734 83.5787 337.939 88.4611C335.188 91.9962 331.655 91.2153 330.539 87.3881C326.977 75.2029 322.836 63.3814 322.836 63.3814C320.688 55.5183 310.699 53.2232 302.584 56.7941C295.674 59.8344 292.81 60.6809 285.333 64.6512C272.641 71.3995 267.593 83.1316 272.91 93.6773L292.249 132.021C294.308 136.099 286.067 138.65 283.179 134.829L256.495 99.5315C252.324 93.5164 240.593 92.7593 234.894 98.1186C231.726 101.099 226.081 109.016 223.485 112.48C217.094 121.004 219.284 127.884 224.744 137.035L245.861 171.897C249.567 178.484 244.453 180.97 242.317 178.484C234.59 169.477 220.036 149.685 220.036 149.685C216.044 144.123 207.44 145.339 205.154 151.789C202.559 159.11 198.638 170.657 197.839 172.916L229.052 343.789L452.786 342.209L458.777 169.685C458.079 166.907 457.327 164.159 456.515 161.429Z" fill="#5D9936"/>
<path d="M250.485 264.429C248.086 264.531 247.042 262.689 249.005 261.312C250.27 260.429 251.296 259.672 251.66 259.321C255.354 255.714 255.443 252.399 254.542 248.733C252.042 238.569 246.021 229.025 241.964 225.019C239.428 222.515 235.155 222.837 232.739 225.454L232.07 226.175C230.585 227.785 228.061 225.829 229.248 223.993L235.03 215.027C236.528 212.702 236.832 209.793 235.836 207.212C225.638 180.94 214.199 171.938 203.918 165.482C199.58 162.758 193.846 165.005 192.575 169.965L184.477 201.495C183.535 205.167 178.069 204.177 178.475 200.41L182.079 166.913C182.419 163.258 181.679 158.972 178.582 156.999C171.296 152.355 157.644 149.63 146.664 149.088C143.902 148.951 141.592 151.157 141.64 153.923L142.112 180.552C141.986 184.958 136.318 183.98 135.578 179.634L130.53 153.493C129.581 149.964 126.997 147.395 123.399 146.721C107.348 143.693 91.6067 142.936 81.5105 144.271C73.9025 145.273 72.2736 153.005 73.4729 158.602L78.9268 184.851C80.1321 188.803 81.6537 190.675 85.7172 191.42L113.577 196.261C118.047 196.636 118.196 200.72 113.762 201.382C100.987 203.289 88.7306 204.881 80.884 206.335C78.4494 206.789 76.6116 208.815 76.4266 211.283C76.0268 216.589 75.0422 222.497 79.4519 227.546C84.1181 232.882 106.948 235.421 128.292 239.702C131.437 240.333 131.836 242.927 128.739 243.761C128.739 243.761 101.208 247.767 91.8693 252.858C85.5383 256.304 85.0907 259.517 85.4249 266.111C85.6277 270.051 86.487 276.43 87.3105 281.891C88.2174 287.917 93.176 292.52 99.2624 292.967C99.2624 292.967 123.548 294.535 131.425 296.818C136.664 298.338 132.523 301.76 129.891 303.042C122.892 306.446 109.615 313.152 109.615 313.152C103.302 316.115 100.653 322.78 100.623 329.749C100.605 334.47 101.351 343.889 101.351 343.889H259.757C259.757 343.889 265.665 306.714 258.737 268.155C258.319 265.842 256.249 264.203 253.904 264.304L250.485 264.429Z" fill="#74BF44"/>
<path d="M139.044 332.394C135.183 318.11 189.554 302.313 198.547 343.339C188.791 343.357 194.304 343.339 182.084 343.339C163.294 331.673 141.854 342.803 139.044 332.394Z" fill="#484848"/>
<path d="M134.374 280.734C133.748 276.62 137.28 272.978 141.326 272.012C168.452 265.556 171.919 285.396 175.159 289.235C177.45 291.947 183.751 290.308 187.117 294.284C189.301 296.865 186.693 304.717 189.241 308.27C192.039 312.168 196.264 308.985 199.582 313.879C202.488 318.165 196.545 322.756 198.472 327.388C201.002 333.474 209.785 330.953 204.815 342.446C200.56 342.428 199.695 342.416 199.695 342.416C199.695 342.416 187.391 340.926 188.877 331.716C189.503 327.847 179.461 330.625 177.062 327.054C175.147 324.204 178.136 321.534 174.604 320.103C172.414 319.215 164.364 320.377 162.175 315.739C160.504 312.21 164.943 307.912 159.65 306.559C147.782 303.518 137.274 299.822 134.374 280.734Z" fill="#FDFFFF"/>
<path d="M194.689 317.285C197.965 307.514 198.884 297.535 205.095 295.287C209.589 293.66 210.764 297.66 213.968 296.766C218.438 295.52 217.99 274.208 246.542 276.378C255.272 277.039 260.66 291.371 245.104 295.806C236.798 298.179 246.25 299.407 243.702 303.925C240.11 310.292 226.016 307.341 221.511 313.273C218.849 316.778 223.563 323.151 218.879 332.373C217.781 334.537 216.516 336.606 215.221 338.502C211.617 343.789 203.604 343.032 201.068 337.16C197.732 329.434 193.728 320.152 194.689 317.285Z" fill="#FDFFFF"/>
<path d="M197.6 334.728C194.199 322.763 192.546 310.53 192.886 299.538C193.37 284.097 197.738 272.014 205.513 264.598L207.983 267.185C193.579 280.914 194.259 310.161 201.24 334.424C202.01 337.071 198.424 337.631 197.6 334.728Z" fill="#FDFFFF"/>
<path d="M189.783 264.77L210.662 263.983L208.955 269.194L214.821 277.474C215.316 278.321 214.111 279.447 212.601 278.982C211.145 278.541 209.653 277.003 208.716 275.423C208.239 274.619 207.606 275.131 207.642 275.721C207.732 277.212 207.833 279.751 207.833 279.751C207.935 281.295 206.705 281.701 205.22 280.014C203.179 277.695 202.958 275.018 202.684 273.021C202.588 272.335 201.89 272.055 201.252 272.312C201.252 272.312 196.627 273.569 195.117 274.094C193.292 274.732 192.164 273.391 193.626 272.133C194.193 271.644 195.822 270.076 195.822 270.076C196.269 269.718 196.126 269.009 195.571 268.854L189.58 266.97C187.927 266.511 188.064 264.788 189.783 264.77Z" fill="#484848"/>
<path d="M190.476 241.136L191.956 241.399C192.582 241.512 193.131 240.976 193.042 240.35L192.654 237.685C192.373 235.753 194.42 234.329 196.133 235.27L197.326 235.926C197.905 236.242 198.621 235.873 198.698 235.217L198.961 232.975C199.152 231.354 201.157 230.698 202.267 231.896L203.132 232.832C203.544 233.279 204.266 233.214 204.594 232.707L206.479 229.798C207.542 228.158 209.988 228.308 210.847 230.06L211.868 232.153C212.142 232.707 212.87 232.85 213.33 232.433L214.929 230.984C216.265 229.774 218.413 230.561 218.652 232.343L218.825 233.613C218.909 234.209 219.529 234.573 220.09 234.352L222.728 233.315C223.802 232.892 224.894 233.893 224.565 235.002L224.327 235.801C224.118 236.499 224.756 237.154 225.461 236.963L228.158 236.23C230.24 235.664 231.869 238.043 230.586 239.777L229.882 240.731C229.446 241.315 229.828 242.15 230.556 242.21L234.459 242.525C236.529 242.692 237.371 245.274 235.795 246.627L234.584 247.664C233.993 248.171 234.25 249.137 235.014 249.28L236.995 249.667C238.099 249.882 238.367 251.331 237.418 251.933L236.577 252.463C235.873 252.91 236.064 253.983 236.881 254.156L238.176 254.43C239.578 254.729 239.704 256.678 238.349 257.155L236.756 257.715C236.016 257.977 235.909 258.973 236.577 259.384L238.081 260.308C239.567 261.226 239.047 263.504 237.311 263.683L235.962 263.82C235.252 263.891 234.888 264.702 235.3 265.28L236.183 266.532C237.007 267.695 235.855 269.227 234.507 268.768L233.027 268.261C232.394 268.046 231.744 268.547 231.798 269.215L231.941 270.997C232.018 271.975 230.974 272.643 230.127 272.16L229.172 271.617C228.605 271.295 227.889 271.647 227.794 272.291L227.716 272.833C227.525 274.115 225.938 274.622 225.043 273.68L224.297 272.899C223.79 272.368 222.901 272.601 222.722 273.316L222.382 274.675C221.952 276.398 219.661 276.78 218.7 275.283L218.008 274.204C217.632 273.62 216.773 273.638 216.42 274.234L216.23 274.556C215.86 275.182 214.947 275.164 214.606 274.52C214.272 273.888 213.377 273.859 212.995 274.461L212.709 274.92C212.285 275.588 211.277 275.462 211.032 274.711L210.782 273.924C210.621 273.418 210.066 273.149 209.564 273.34L208.132 273.883C207.452 274.139 206.754 273.555 206.885 272.845L206.969 272.404C207.088 271.754 206.515 271.194 205.865 271.325L204.373 271.629C203.753 271.754 203.186 271.242 203.263 270.61L203.323 270.073C203.4 269.423 202.804 268.905 202.171 269.066L200.298 269.543C199.528 269.739 198.877 268.941 199.235 268.225L199.349 268.005C199.665 267.367 199.182 266.622 198.466 266.663L196.711 266.759C195.488 266.824 194.605 265.614 195.047 264.469L195.339 263.7C195.548 263.152 195.202 262.55 194.623 262.449L191.938 262.007C190.858 261.829 190.595 260.398 191.538 259.849C192.284 259.414 192.087 258.293 191.24 258.132L189.933 257.888C188.483 257.62 188.191 255.664 189.503 254.991L189.784 254.842C190.536 254.454 190.422 253.345 189.605 253.119L188.907 252.928C187.361 252.505 187.445 250.287 189.014 249.977C189.891 249.804 190.04 248.618 189.241 248.231L187.57 247.426C186.4 246.859 186.806 245.101 188.107 245.107L189.802 245.119C190.625 245.125 191.049 244.135 190.476 243.545L189.664 242.71C189.014 242.055 189.587 240.981 190.476 241.136Z" fill="#313131"/>
<path d="M217.157 261.08L215.964 261.084L215.989 269.186L217.182 269.182L217.157 261.08Z" fill="#5D9936"/>
<path d="M217.084 238.367L215.891 238.371L215.916 246.663L217.11 246.66L217.084 238.367Z" fill="#5D9936"/>
<path d="M221.5 259.845L220.599 260.626L226.813 267.789L227.715 267.008L221.5 259.845Z" fill="#5D9936"/>
<path d="M205.997 238.077L204.958 238.663L209.39 246.501L210.429 245.914L205.997 238.077Z" fill="#5D9936"/>
<path d="M228.338 243.147L220.284 248.27L220.925 249.275L228.979 244.153L228.338 243.147Z" fill="#5D9936"/>
<path d="M193.954 244.419L193.547 245.54L204.204 249.404L204.611 248.283L193.954 244.419Z" fill="#5D9936"/>
<path d="M222.06 254.629L221.889 255.809L233.564 257.497L233.735 256.317L222.06 254.629Z" fill="#5D9936"/>
<path d="M210.905 259.321L203.481 265.441L204.241 266.361L211.665 260.241L210.905 259.321Z" fill="#5D9936"/>
<path d="M208.69 253.5L191.991 255.804L192.154 256.985L208.853 254.681L208.69 253.5Z" fill="#5D9936"/>
<path d="M206.027 321.755L204.977 321.183C214.78 303.239 236.053 286.726 236.268 286.559L236.996 287.501C236.793 287.673 215.711 304.032 206.027 321.755Z" fill="#5D9936"/>
<path d="M185.172 317.077C172.092 298.483 161.506 291.663 154.501 287.15C153.678 286.62 152.896 286.119 152.168 285.63L152.83 284.641C153.552 285.123 154.328 285.624 155.151 286.149C162.234 290.709 172.939 297.607 186.15 316.391L185.172 317.077Z" fill="#5D9936"/>
<path d="M78.3967 325.976L77.2332 325.72C78.5161 319.896 78.4087 317.38 78.0984 316.301C77.7284 315.025 77.1317 314.28 76.3202 314.095C75.2402 313.845 73.7305 314.602 72.3879 316.069C71.1408 317.434 69.5834 317.94 68.217 317.416C66.8446 316.891 65.9793 315.46 65.9614 313.678C65.8719 304.39 64.0639 297.135 60.43 291.49C59.3977 289.886 57.8761 288.926 56.6469 289.105C55.8712 289.218 55.3103 289.785 55.0299 290.75C54.7673 291.639 53.6336 294.488 49.8982 293.767C46.0435 293.022 42.6244 286.75 40.7866 283.382C40.5121 282.881 40.2913 282.47 40.1183 282.178C38.895 280.109 37.2899 279.251 35.4759 279.686C32.1404 280.485 28.954 285.236 28.6616 289.85C28.5363 291.841 28.584 294.405 28.7929 296.706L27.6054 296.813C27.3906 294.452 27.3429 291.823 27.4742 289.773C27.8024 284.598 31.3408 279.448 35.2015 278.524C37.5405 277.963 39.6529 279.042 41.1506 281.57C41.3296 281.874 41.5623 282.297 41.8428 282.816C43.4598 285.785 46.8312 291.967 50.1369 292.604C52.7027 293.099 53.5918 291.448 53.8961 290.423C54.3138 288.998 55.2387 288.109 56.4918 287.931C58.1984 287.68 60.1436 288.831 61.4444 290.852C65.2036 296.688 67.0713 304.152 67.1668 313.672C67.1787 314.954 67.7516 315.961 68.6526 316.307C69.5536 316.653 70.5978 316.277 71.5167 315.27C73.1756 313.451 75.0791 312.581 76.6007 312.939C77.4659 313.141 78.6354 313.833 79.256 315.973C79.7512 317.732 79.4648 321.1 78.3967 325.976Z" fill="#5D9936"/>
<path d="M60.2221 338.889C59.6254 316.629 51.2955 300.127 51.2119 299.96L52.274 299.418C52.3576 299.585 60.8128 316.313 61.4155 338.859L60.2221 338.889Z" fill="#5D9936"/>
<path d="M78.5636 344.021C78.3309 344.021 78.1041 344.021 77.8655 344.015L77.8834 342.823C84.8767 342.936 90.068 341.38 92.4489 338.442C93.7795 336.802 94.1853 334.781 93.6482 332.438C93.0038 329.619 91.1421 327.568 88.266 326.513C83.0269 324.587 75.1027 326.262 69.4281 330.495C62.6257 335.568 58.7233 343.682 58.6875 343.765L57.6074 343.252C57.7685 342.907 61.6769 334.787 68.712 329.541C74.7865 325.01 82.9971 323.305 88.6777 325.398C91.9536 326.602 94.0719 328.945 94.8118 332.182C95.4264 334.865 94.9252 337.291 93.3737 339.205C90.8497 342.316 85.5987 344.021 78.5636 344.021Z" fill="#5D9936"/>
<path d="M57.5547 343.569C56.3673 332.57 53.4793 325.661 51.2595 321.798C48.8668 317.625 46.7246 316.021 46.7007 316.003C46.0921 315.568 45.5968 315.377 45.3044 315.467C44.9106 315.592 44.6481 316.337 44.4154 316.987C44.1289 317.804 43.8545 318.573 43.1742 318.841C42.8043 318.984 42.3985 318.942 41.9689 318.71C40.9963 318.191 40.6502 317.112 40.137 315.473C39.2181 312.57 37.6846 307.711 31.1566 300.54C29.3606 298.566 23.0713 292.229 17.6771 293.612C16.251 293.976 15.2307 294.9 14.9502 296.074C14.6459 297.326 13.5181 298.137 12.2591 297.994C10.469 297.791 6.01162 297.571 3.34436 299.765C2.07935 300.808 1.3633 302.286 1.21413 304.164C0.712897 310.459 8.82207 313.255 15.344 315.503C18.5901 316.617 21.3886 317.583 22.5582 318.835C23.131 319.443 23.1608 320.045 23.0833 320.439C22.773 322.066 20.052 323.36 17.8681 324.397C17.0864 324.767 16.3525 325.118 16.0243 325.357C15.0457 326.066 14.0492 327.366 14.4728 328.701C14.7951 329.739 16.5255 332.177 25.5059 332.356C33.5912 332.523 38.4483 335.414 41.0977 337.81C43.9977 340.433 44.9524 343.009 44.9942 343.116L43.8724 343.521C43.8366 343.426 40.1549 333.84 25.482 333.542C16.5434 333.357 13.9418 330.996 13.3331 329.047C12.8319 327.449 13.6136 325.613 15.3261 324.379C15.7438 324.081 16.4539 323.741 17.3609 323.312C18.9899 322.537 21.7228 321.238 21.9137 320.206C21.9376 320.081 21.9316 319.902 21.687 319.64C20.7203 318.603 17.9218 317.643 14.9562 316.617C8.41035 314.364 -0.552124 311.276 0.0266774 304.057C0.205688 301.845 1.06494 300.092 2.58653 298.835C5.49844 296.432 9.97967 296.528 12.3903 296.796C13.0408 296.873 13.6315 296.444 13.7926 295.782C14.1805 294.167 15.523 292.921 17.3848 292.444C19.336 291.943 24.6884 291.651 32.0398 299.723C38.7467 307.091 40.3339 312.105 41.2767 315.103C41.7183 316.504 41.9868 317.357 42.5357 317.643C42.673 317.714 42.7386 317.72 42.7506 317.714C42.9236 317.649 43.1683 316.951 43.2995 316.576C43.6217 315.658 43.9917 314.614 44.9584 314.31C45.6446 314.096 46.4441 314.328 47.4108 315.02C47.7808 315.288 56.415 321.798 58.7481 343.42L57.5547 343.569Z" fill="#5D9936"/>
<path d="M62.8877 343.943L62.0762 343.073C72.065 333.773 83.3008 330.846 83.4142 330.816L83.7066 331.973C83.5992 331.997 72.6438 334.858 62.8877 343.943Z" fill="#5D9936"/>
<path d="M49.0996 343.418C49.0817 324.825 19.3003 305.575 19.002 305.384L19.6464 304.377C19.724 304.425 27.3737 309.343 34.916 316.544C45.1136 326.273 50.287 335.317 50.293 343.418H49.0996Z" fill="#5D9936"/>
<path d="M594.407 89.1762H458.502C455.943 89.1762 453.812 88.2522 452.345 86.5055C451.062 84.9794 450.352 82.8989 450.352 80.6395C450.352 76.1327 453.311 71.3456 458.801 71.3456H468.515C469.488 71.3456 470.192 71.0774 470.669 70.5289C472.256 68.7107 471.576 63.8402 470.723 57.6701C470.484 55.9652 470.24 54.2006 470.019 52.3287L469.977 51.9889C469.118 44.8293 467.334 29.9317 482.472 24.5068C488.314 22.4143 491.208 21.6095 496.465 20.1609C497.831 19.7853 499.359 19.3621 501.149 18.8553C505.833 17.5379 509.27 17.5021 512.301 18.7421C515.995 20.2503 518.996 23.7318 521.466 29.3773C524.76 36.9065 527.487 39.2255 531.879 38.23C561.159 31.583 565.831 43.5535 570.348 55.1306C570.629 55.8459 570.903 56.5554 571.19 57.2648C574.125 64.5794 577.694 71.3456 583.864 71.3456H594.109C599.831 71.3456 602.821 75.9121 602.821 80.4189C602.821 84.6396 600.189 89.1762 594.407 89.1762ZM458.801 72.5439C454.039 72.5439 451.545 76.6215 451.545 80.6455C451.545 82.6187 452.154 84.4309 453.257 85.7425C454.493 87.209 456.307 87.9899 458.502 87.9899H594.407C599.372 87.9899 601.627 84.0673 601.627 80.4249C601.627 76.6275 599.276 72.5439 594.109 72.5439H583.864C576.978 72.5439 573.171 65.414 570.08 57.7119C569.793 57.0025 569.513 56.2871 569.232 55.5717C567.066 50.0217 564.823 44.2748 559.685 40.8589C553.879 36.99 544.863 36.5131 532.136 39.4044C526.383 40.7099 523.364 36.7217 520.363 29.8661C515.458 18.6586 509.258 17.824 501.465 20.0178C499.675 20.5186 498.141 20.9478 496.775 21.3234C491.381 22.8137 488.672 23.5649 482.866 25.6454C468.623 30.7484 470.329 45.0081 471.153 51.8637L471.194 52.2035C471.415 54.0635 471.66 55.8221 471.892 57.5271C472.823 64.2456 473.498 69.1041 471.558 71.3278C470.848 72.1385 469.822 72.5498 468.503 72.5498H458.801V72.5439Z" fill="#5D9936"/>
<path d="M199.015 102.102H89.639C87.5625 102.102 85.8321 101.464 84.6267 100.265C83.5527 99.1923 82.9619 97.7258 82.9619 96.1341C82.9619 92.9925 85.3845 89.6541 89.8777 89.6541H97.6945C98.5358 89.6541 99.1206 89.4454 99.4787 89.0222C100.535 87.7822 99.9858 84.4736 99.3533 80.6404C99.1624 79.4839 98.9655 78.2916 98.7865 77.0218L98.7566 76.7893C98.0585 71.8831 96.6085 61.6831 108.918 57.9691C113.626 56.5503 115.96 56.0078 120.19 55.0242C121.288 54.7678 122.517 54.4817 123.949 54.1419C129.821 52.7529 135.883 52.6635 140.394 61.3373C142.698 65.7547 144.697 68.0082 148.683 67.2451C172.3 62.7383 176.083 70.8875 179.741 78.7685C179.968 79.2514 180.189 79.7343 180.415 80.2112C182.754 85.1174 185.601 89.6541 190.523 89.6541H198.764C203.442 89.6541 205.894 92.8375 205.894 95.9851C205.906 98.93 203.752 102.102 199.015 102.102ZM89.8837 90.8463C86.1304 90.8463 84.1613 93.5051 84.1613 96.1341C84.1613 97.4039 84.6267 98.5723 85.474 99.4189C86.4467 100.391 87.8907 100.909 89.639 100.909H199.015C202.929 100.909 204.713 98.3577 204.713 95.9851C204.713 93.5111 202.857 90.8463 198.776 90.8463H190.535C184.95 90.8463 181.859 85.9818 179.347 80.7239C179.12 80.241 178.894 79.7581 178.667 79.2752C175.039 71.4658 171.62 64.0855 148.909 68.4195C144.237 69.3137 141.785 66.5834 139.338 61.8858C135.43 54.3804 130.465 53.8259 124.224 55.2984C122.786 55.6382 121.557 55.9244 120.459 56.1807C116.115 57.1941 113.931 57.7009 109.259 59.1078C97.9272 62.5237 99.234 71.6923 99.9321 76.6164L99.9679 76.8489C100.147 78.1068 100.344 79.2931 100.529 80.4437C101.263 84.9028 101.794 88.1279 100.386 89.7912C99.7889 90.4887 98.882 90.8463 97.6886 90.8463H89.8837Z" fill="#5D9936"/>
<path d="M194.481 324.265C193.55 319.425 192.619 312.247 192.613 312.176L193.795 312.021C193.801 312.092 194.726 319.234 195.651 324.039L194.481 324.265Z" fill="#5D9936"/>
<path d="M737.473 342.822H6.33984V344.015H737.473V342.822Z" fill="#5D9936"/>
<path d="M199.569 342.847H397.215V261.783C397.215 261.783 247.872 311.633 197.946 327.156C187.462 330.417 187.277 342.847 199.569 342.847Z" fill="#EC8C92"/>
<path d="M644.632 297.295L686.353 325.26C692.404 325.26 696.67 319.335 694.737 313.606L662.753 218.575C659.167 207.91 647.537 202.241 636.916 205.966L554.864 234.766C467.548 269.229 544.392 322.351 558.88 316.682L624.397 291.054C631.773 288.174 640.168 290.762 644.632 297.295Z" fill="#EC8C92"/>
<path d="M662.759 218.569C659.173 207.904 647.543 202.235 636.922 205.961L568.892 229.842C577.854 243.386 588.642 277.003 593.207 303.257L624.403 291.054C631.778 288.169 640.168 290.756 644.637 297.289L666.602 315.996C668.344 318.244 686.358 325.255 686.358 325.255C692.409 325.255 696.675 319.329 694.742 313.6L662.759 218.569Z" fill="#313131"/>
<path d="M354.449 251.357L447.565 324.819L440.004 342.846H495.008C499.889 342.846 505.236 342.846 509.031 342.846H525.834C546.408 342.846 563.086 326.184 563.086 305.629V207.945C563.086 168.338 532.66 162.531 503.983 151.282L354.449 234.969V251.357Z" fill="#484848"/>
<path d="M266.74 337.648H265.547C265.547 334.483 266.693 331.425 268.769 329.034L275.166 321.684L276.067 322.465L269.67 329.815C267.784 331.985 266.74 334.769 266.74 337.648Z" fill="#171717"/>
<path d="M247.383 337.648H246.189C246.189 334.912 246.762 331.18 249.489 328.962C254.066 325.237 265.445 316.354 265.558 316.265L266.292 317.207C266.179 317.296 254.806 326.173 250.241 329.892C247.878 331.812 247.383 335.168 247.383 337.648Z" fill="#171717"/>
<path d="M222.106 337.648H220.913C220.913 334.519 220.913 330.632 227.507 327.347C233.814 324.211 250.42 316.271 250.587 316.193L251.1 317.266C250.933 317.344 234.339 325.279 228.038 328.414C222.106 331.365 222.106 334.704 222.106 337.648Z" fill="#171717"/>
<path d="M694.742 313.599L688.178 294.1L686.054 287.787L682.39 276.901L679.8 269.211L662.753 218.563C659.542 209.018 649.888 203.48 640.281 205.096L662.89 265.503C654.757 264.197 645.454 263.41 635.871 263.989C631.676 243.058 624.379 224.506 618.817 212.309L608.584 215.904C615.935 231.964 626.968 260.585 628.341 290.04C632.118 289.533 635.931 290.32 639.171 292.216C639.01 286.284 638.491 280.4 637.685 274.642C645.466 274.272 653.098 274.898 659.936 275.935C664.441 276.621 668.212 279.715 669.806 283.983L670.921 286.958C658.379 290.666 650.574 295.536 646.093 299.173L652.656 307.638C654.154 306.398 656.284 304.854 659.196 303.233C662.401 301.45 666.894 299.405 672.908 297.557C673.905 297.253 674.973 297.772 675.337 298.75L676.471 301.778C679.049 308.663 673.953 315.996 666.595 315.996L686.352 325.254C692.403 325.254 696.669 319.328 694.742 313.599Z" fill="#484848"/>
<path d="M659.901 314.887L678.828 339.287C680.57 341.535 683.262 342.852 686.108 342.852H701.622C707.673 342.852 711.939 336.921 710.006 331.198L678.023 236.167C674.436 225.502 662.807 219.832 652.185 223.558L570.133 252.358C566.69 253.568 563.08 251.011 563.08 247.368V187.223C563.08 165.19 545.537 146.823 523.483 146.537C501.076 146.245 482.817 164.308 482.817 186.627V314.631C482.817 330.214 495.462 342.852 511.065 342.852H528.692C544.248 342.852 559.667 339.943 574.149 334.28L639.666 308.651C647.042 305.766 655.437 308.347 659.901 314.887Z" fill="#484848"/>
<path d="M313.951 296.234L294.851 293.218C289.671 292.401 284.641 295.394 282.899 300.336L277.588 315.382C277.529 315.555 277.475 315.728 277.421 315.901C276.007 320.926 280.023 325.856 285.244 325.833L306.457 325.731L313.951 296.234Z" fill="#F2BDBA"/>
<path d="M678.029 236.161C674.443 225.496 662.813 219.826 652.192 223.552L570.139 252.352C567.359 253.33 564.471 251.845 563.462 249.318L554.554 265.032L499.89 340.539C503.321 342.018 507.098 342.84 511.066 342.84H528.692C544.248 342.84 559.667 339.931 574.149 334.268L639.667 308.64C647.042 305.754 655.432 308.342 659.901 314.875L678.829 339.275C680.571 341.523 683.262 342.84 686.108 342.84H701.623C707.673 342.84 711.94 336.909 710.006 331.186L678.029 236.161Z" fill="#F2BDBA"/>
<path d="M441.49 190.813L441.018 190.723C422.795 187.254 405.204 199.206 401.732 217.412L390.663 277.975C389.625 283.423 385.364 287.686 379.91 288.729C379.91 288.729 306.587 300.974 294.737 302.232C286.067 303.15 284.39 310.971 289.259 317.833C285.715 320.67 286.568 330.31 292.535 332.957C289.57 338.721 293.561 345.452 298.872 347.663C294.355 354.352 303.819 363.235 314.905 361.858C341.847 358.513 401.397 351.216 431.233 346.59C440.905 345.088 447.964 336.229 449.832 326.417L468.204 230.063C471.677 211.856 459.719 194.282 441.49 190.813Z" fill="#F2BDBA"/>
<path d="M524.402 252.519C523.047 252.519 521.699 252.198 520.464 251.554L505.833 243.905C501.005 241.383 498.004 236.43 498.004 230.987V195.224C498.004 191.337 501.172 188.172 505.063 188.172H543.741C547.632 188.172 550.8 191.337 550.8 195.224V230.987C550.8 236.43 547.799 241.383 542.971 243.905L528.334 251.554C527.105 252.198 525.751 252.519 524.402 252.519ZM505.063 189.358C501.829 189.358 499.197 191.987 499.197 195.218V230.981C499.197 235.982 501.954 240.525 506.388 242.844L521.019 250.493C523.137 251.601 525.667 251.601 527.785 250.493L542.422 242.844C546.856 240.525 549.613 235.982 549.613 230.981V195.218C549.613 191.987 546.981 189.358 543.747 189.358H505.063Z" fill="#EDEDED"/>
<path d="M524.581 220.036C523.041 220.036 521.603 219.279 520.738 218.015C517.08 212.679 511.036 209.496 504.574 209.496H498.004V195.224C498.004 191.337 501.172 188.172 505.063 188.172H543.741C547.632 188.172 550.8 191.337 550.8 195.224V209.496H544.588C538.126 209.496 532.082 212.679 528.424 218.015C527.553 219.279 526.114 220.036 524.581 220.036ZM499.191 208.298H504.568C511.424 208.298 517.832 211.678 521.717 217.335C522.373 218.289 523.411 218.837 524.575 218.837C525.739 218.837 526.777 218.289 527.433 217.335C531.312 211.678 537.726 208.298 544.582 208.298H549.601V195.218C549.601 191.987 546.969 189.358 543.735 189.358H505.057C501.823 189.358 499.191 191.987 499.191 195.218V208.298Z" fill="#EDEDED"/>
<path d="M524.426 213.692C521.973 213.692 519.986 211.707 519.986 209.257C519.986 206.806 521.973 204.821 524.426 204.821C526.878 204.821 528.865 206.806 528.865 209.257C528.865 211.701 526.878 213.692 524.426 213.692Z" fill="#FDFDFF"/>
<path d="M533.335 249.049L532.165 248.823C533.478 242.116 534.259 232.667 534.259 223.546C534.259 219.719 534.122 215.94 533.86 212.309L535.047 212.22C535.316 215.88 535.453 219.689 535.453 223.546C535.447 232.733 534.653 242.265 533.335 249.049Z" fill="#EDEDED"/>
<path d="M516.734 249.711C515.326 242.807 514.484 233.025 514.484 223.54C514.484 219.916 514.604 216.327 514.842 212.869L516.036 212.953C515.797 216.38 515.678 219.945 515.678 223.546C515.678 232.959 516.507 242.652 517.903 249.478L516.734 249.711Z" fill="#EDEDED"/>
<path d="M678.029 236.161C674.443 225.496 662.813 219.826 652.192 223.552L573.087 251.321C584.884 267.339 597.474 302.338 600.41 324.002L639.673 308.646C647.048 305.76 655.438 308.348 659.907 314.881L678.834 339.281C680.577 341.529 683.268 342.846 686.114 342.846H701.629C707.679 342.846 711.945 336.915 710.012 331.192L678.029 236.161Z" fill="#313131"/>
<path d="M710.012 331.192L703.449 311.692L701.324 305.379L697.661 294.494L695.071 286.804L678.023 236.155C674.813 226.611 665.158 221.073 655.551 222.688L678.16 283.096C670.027 281.79 660.725 281.003 651.142 281.581C646.947 260.651 639.649 242.099 634.088 229.902L623.854 233.497C631.206 249.557 642.239 278.177 643.611 307.633C647.388 307.126 651.201 307.913 654.441 309.809C654.28 303.877 653.761 297.993 652.956 292.234C660.737 291.865 668.368 292.491 675.207 293.528C679.712 294.214 683.483 297.308 685.076 301.576L686.192 304.551C673.649 308.259 665.844 313.129 661.363 316.766L667.927 325.231C669.425 323.991 671.555 322.447 674.467 320.831C677.671 319.049 682.164 317.004 688.179 315.156C689.175 314.852 690.244 315.371 690.608 316.348L691.741 319.377C694.319 326.262 689.223 333.595 681.866 333.595H674.413L678.829 339.288C680.571 341.535 683.262 342.853 686.108 342.853H701.623C707.673 342.847 711.94 336.921 710.012 331.192Z" fill="#484848"/>
<path d="M290.93 317.721L290.636 318.877L302.948 322.004L303.242 320.849L290.93 317.721Z" fill="#171717"/>
<path d="M295.415 333.871L295.12 335.026L306.437 337.904L306.731 336.749L295.415 333.871Z" fill="#171717"/>
<path d="M301.107 348.331L300.79 349.48L309.799 351.96L310.116 350.811L301.107 348.331Z" fill="#171717"/>
<path d="M643.726 225.945L570.879 251.482L571.274 252.607L644.121 227.07L643.726 225.945Z" fill="#171717"/>
<path d="M567.585 252.597C565.359 252.257 563.491 250.492 563.151 248.144L482.823 286.929V314.631C482.823 329.916 494.99 342.358 510.176 342.829L567.585 252.597Z" fill="#787878"/>
<path d="M308.95 304.371C306.092 304.455 303.091 303.751 302.637 301.086C301.903 296.83 300.877 283.971 300.877 283.971L309.792 281.491L315.138 298.606C315.818 302.499 313.008 304.258 308.95 304.371Z" fill="#1A1A1A"/>
<path d="M319.763 249.025C315.413 231.868 305.353 219.612 297.28 221.656L283.514 225.138C291.581 223.099 301.647 235.35 305.997 252.507C310.347 269.664 307.328 285.229 299.255 287.268L313.021 283.786C321.094 281.748 324.113 266.182 319.763 249.025Z" fill="#1A1A1A"/>
<path d="M299.243 287.256C307.313 285.215 310.331 269.654 305.984 252.499C301.637 235.343 291.572 223.091 283.502 225.132C275.432 227.173 272.414 242.734 276.761 259.889C281.108 277.044 291.174 289.297 299.243 287.256Z" fill="#484848"/>
<path d="M293.329 228.649C289.48 233.955 288.579 244.93 291.574 256.757C294.468 268.186 300.185 277.181 305.901 280.341C308.538 273.795 308.777 263.482 305.996 252.507C303.329 241.985 298.514 233.317 293.329 228.649Z" fill="#2C2C2C"/>
<path d="M296.575 283.501C289.606 280.448 283.919 272.031 280.977 260.406C277.111 245.133 279.199 231.863 286.055 228.125L286.628 229.174C280.345 232.596 278.459 245.61 282.135 260.12C284.987 271.381 290.429 279.506 297.053 282.41L296.575 283.501Z" fill="#FAFCFC"/>
<path d="M380.566 262.081C378.86 255.869 376.342 245.753 374.146 236.751C377.493 235.905 379.982 232.882 379.982 229.276C379.982 225.013 376.521 221.556 372.254 221.556H370.482C369.915 219.171 369.575 217.74 369.575 217.74H327.621V268.776C327.621 278.392 335.42 286.183 345.045 286.183H361.048C372.189 286.183 384.051 274.791 380.566 262.081Z" fill="#F2BDBA"/>
<path d="M337.568 177.775C337.568 177.775 333.66 161.482 334.101 153.863C334.507 146.787 341.87 142.465 347.611 143.908C354.467 145.637 352.533 154.835 356.615 157.285C362.003 160.516 367.928 154.776 375.662 158.543C385.352 163.265 381.551 179.712 354.347 184.905C350.224 185.691 345.952 185.143 342.151 183.361C342.133 183.355 342.127 183.349 342.127 183.349C339.651 182.365 337.938 180.267 337.568 177.775Z" fill="#484848"/>
<path d="M318.928 219.898C329.274 223.916 353.483 230.551 385.717 221.555C388.205 220.864 388.599 217.501 386.337 216.255C372.368 208.559 357.343 200.541 352.844 198.145C352.003 197.698 350.994 197.698 350.153 198.139L318.641 214.676C316.457 215.82 316.63 219.004 318.928 219.898Z" fill="#313131"/>
<path d="M372.852 208.374C372.893 206.759 372.81 204.267 372.726 203.492C371.551 192.565 362.29 184.058 351.036 184.058C338.989 184.058 329.221 193.816 329.221 205.853V208.374C340.057 211.993 361.276 213.483 372.852 208.374Z" fill="#787878"/>
<path d="M351.036 184.058C341.853 184.058 334 189.727 330.784 197.751C341.495 200.863 360.07 202.037 371.336 197.87C368.15 189.787 360.261 184.058 351.036 184.058Z" fill="#313131"/>
<path d="M331.53 175.546C325.885 171.009 323.51 165.745 322.513 162.132C321.433 158.204 321.69 155.372 321.702 155.253L322.889 155.366C322.877 155.474 321.982 166.347 332.281 174.616L331.53 175.546Z" fill="#484848"/>
<path d="M331.971 174.031C326.78 163.354 328.373 154.377 328.445 154.001L329.62 154.222C329.602 154.311 328.039 163.205 333.051 173.513L331.971 174.031Z" fill="#484848"/>
<path d="M331.285 171.187C332.729 170.794 334.215 171.664 334.585 173.113L335.033 174.895C335.212 175.593 335.665 176.195 336.286 176.559L342.909 180.386C345.69 181.989 353.095 188.046 350.529 189.978C349.676 190.651 348.536 190.836 347.516 190.479C344.604 189.447 342.742 188.774 340.731 188.076C337.927 187.098 335.564 185.149 334.06 182.592L329.722 175.193C328.767 173.661 329.555 171.658 331.285 171.187Z" fill="#484848"/>
<path d="M339.478 176.565C339.478 176.565 340.922 160.32 343.643 153.423C346.173 147.014 354.151 145.285 358.901 148.385C364.575 152.087 360.011 159.986 362.958 163.503C366.843 168.147 373.961 164.66 379.803 170.52C387.119 177.853 378.675 191.862 352.522 188.315C348.524 187.778 339.019 182.377 339.478 176.565Z" fill="#EDEDED"/>
<path d="M351.472 249.461L350.606 248.644C350.762 248.477 354.497 244.62 361.198 246.462L360.882 247.613C354.903 245.973 351.609 249.318 351.472 249.461Z" fill="#171717"/>
<path d="M363.036 239.326C362.547 239.285 360.142 239.052 357.821 238.802C353.548 238.349 352.916 238.277 352.832 237.866C352.755 237.776 352.689 237.669 352.641 237.556C352.48 237.15 352.588 236.697 352.91 236.411L358.274 231.564L359.074 232.447L353.883 237.132C355.35 237.377 362.045 238.045 363.137 238.134L363.036 239.326ZM353.584 237.013L353.614 238.194C353.781 238.14 353.984 237.967 354.008 237.687C354.026 237.472 353.93 237.299 353.811 237.198L353.698 237.299C353.733 237.27 353.757 237.21 353.745 237.15C353.704 237.12 353.668 237.103 353.626 237.097C353.65 237.103 353.686 237.115 353.733 237.12C353.715 237.049 353.644 237.013 353.584 237.013C353.59 237.013 353.59 237.013 353.584 237.013Z" fill="#171717"/>
<path d="M337.92 243.386C335.904 243.386 334.269 241.746 334.269 239.737V236.888C334.269 234.873 335.909 233.239 337.92 233.239C339.937 233.239 341.572 234.879 341.572 236.888V239.737C341.572 241.752 339.937 243.386 337.92 243.386ZM337.92 234.426C336.566 234.426 335.462 235.528 335.462 236.882V239.731C335.462 241.084 336.566 242.187 337.92 242.187C339.275 242.187 340.379 241.084 340.379 239.731V236.882C340.379 235.528 339.275 234.426 337.92 234.426Z" fill="#171717"/>
<path d="M334.251 257.592H333.058V273.711H334.251V257.592Z" fill="#171717"/>
<path d="M343.41 261.002H342.217V279.28H343.41V261.002Z" fill="#171717"/>
<path d="M353.453 259.595L352.26 259.613L352.617 282.926L353.81 282.908L353.453 259.595Z" fill="#171717"/>
<path d="M363.47 257.578L362.277 257.618L363.022 279.746L364.215 279.706L363.47 257.578Z" fill="#171717"/>
<path d="M371.191 250.518L370.007 250.664L372.659 272.08L373.844 271.934L371.191 250.518Z" fill="#171717"/>
<path d="M441.49 190.813L441.019 190.723C422.795 187.254 405.205 199.206 401.732 217.412L390.663 275.471C390.49 276.365 390.036 277.694 389.476 278.988C397.991 285.706 440.416 318.238 449.993 325.6L468.21 230.057C471.677 211.856 459.719 194.282 441.49 190.813Z" fill="#787878"/>
<path d="M542.275 263.239L490.454 294.967L491.078 295.983L542.899 264.256L542.275 263.239Z" fill="#171717"/>
<path d="M534.1 277.242L488.724 319.024L489.532 319.901L534.908 278.119L534.1 277.242Z" fill="#171717"/>
<path d="M543.887 277.158L513.354 319.915L514.326 320.608L544.858 277.851L543.887 277.158Z" fill="#171717"/>
<path d="M401.21 274.583L400.542 275.571L440.887 302.811L441.556 301.823L401.21 274.583Z" fill="#171717"/>
<path d="M401.893 261.985L401.26 262.996L434.505 283.765L435.138 282.754L401.893 261.985Z" fill="#171717"/>
<path d="M429.448 270.081L428.855 271.115L445.4 280.58L445.993 279.545L429.448 270.081Z" fill="#171717"/>
<path d="M483.42 205.71H482.227V310.023H483.42V205.71Z" fill="#171717"/>
<path d="M352.408 212.274C344.818 212.274 337.156 211.278 331.416 209.764L331.72 208.613C341.649 211.23 357.408 212.28 368.328 209.209L368.65 210.36C363.859 211.701 358.154 212.274 352.408 212.274Z" fill="#171717"/>
<path d="M287.177 327.37C285.989 323.638 286.544 319.716 288.478 317.748C285.948 313.951 285.285 309.843 286.717 306.672C288 303.84 290.823 302.052 294.677 301.646L294.803 302.833C291.39 303.196 288.901 304.735 287.803 307.167C286.491 310.07 287.219 313.933 289.749 317.498L290.077 317.957L289.635 318.309C287.779 319.799 287.207 323.537 288.317 327.018L287.177 327.37Z" fill="#171717"/>
<path d="M394.201 261.95L393.025 261.735L401.146 217.305C404.673 198.801 422.61 186.616 441.132 190.139L441.603 190.228C449.312 191.695 456.079 195.611 461.169 201.555L460.262 202.33C455.351 196.595 448.817 192.816 441.376 191.397L440.905 191.307C432.247 189.662 423.463 191.48 416.177 196.428C408.892 201.382 403.969 208.87 402.316 217.52L394.201 261.95Z" fill="#171717"/>
</svg>
