<svg width="21" height="20" viewBox="0 0 21 20" fill="none" xmlns="http://www.w3.org/2000/svg">
<path d="M18 17.5L13 12.5M14.6667 8.33333C14.6667 9.09938 14.5158 9.85792 14.2226 10.5657C13.9295 11.2734 13.4998 11.9164 12.9581 12.4581C12.4164 12.9998 11.7734 13.4295 11.0657 13.7226C10.3579 14.0158 9.59938 14.1667 8.83333 14.1667C8.06729 14.1667 7.30875 14.0158 6.60101 13.7226C5.89328 13.4295 5.25022 12.9998 4.70854 12.4581C4.16687 11.9164 3.73719 11.2734 3.44404 10.5657C3.15088 9.85792 3 9.09938 3 8.33333C3 6.78624 3.61458 5.30251 4.70854 4.20854C5.80251 3.11458 7.28624 2.5 8.83333 2.5C10.3804 2.5 11.8642 3.11458 12.9581 4.20854C14.0521 5.30251 14.6667 6.78624 14.6667 8.33333Z" stroke="#737373" stroke-width="1.5" stroke-linecap="round" stroke-linejoin="round"/>
</svg>
