<svg width="18" height="22" viewBox="0 0 18 22" fill="none" xmlns="http://www.w3.org/2000/svg">
<path d="M12.0017 1.24917L12.0017 1.24919L17.2517 6.49917C17.4507 6.69838 17.5625 6.96843 17.5625 7.25V19.25C17.5625 19.7307 17.3715 20.1917 17.0316 20.5316C16.6917 20.8715 16.2307 21.0625 15.75 21.0625H2.25C1.7693 21.0625 1.30828 20.8715 0.968369 20.5316C0.628459 20.1917 0.4375 19.7307 0.4375 19.25V2.75C0.4375 2.2693 0.628459 1.80828 0.968369 1.46837C1.30828 1.12846 1.7693 0.9375 2.25 0.9375H11.25C11.3896 0.937507 11.5279 0.965036 11.6569 1.01851C11.7859 1.07199 11.903 1.15037 12.0017 1.24917ZM12.0442 4.29956L11.9375 4.19286V4.34375V6.5V6.5625H12H14.1562H14.3071L14.2004 6.45581L12.0442 4.29956ZM2.5625 18.875V18.9375H2.625H15.375H15.4375V18.875V8.75V8.6875H15.375H10.875C10.5932 8.6875 10.323 8.57556 10.1237 8.3763C9.92444 8.17704 9.8125 7.90679 9.8125 7.625V3.125V3.0625H9.75H2.625H2.5625V3.125V18.875Z" fill="#737373" stroke="#737373" stroke-width="0.125"/>
</svg>
